<mxfile host="Electron" agent="Mozilla/5.0 (X11; Linux x86_64) AppleWebKit/537.36 (KHTML, like Gecko) draw.io/26.0.4 Chrome/128.0.6613.186 Electron/32.2.5 Safari/537.36" version="26.0.4">
  <diagram name="Page-1" id="UdJOkmBQURoVslEpnaWS">
    <mxGraphModel dx="1368" dy="958" grid="1" gridSize="10" guides="1" tooltips="1" connect="1" arrows="1" fold="1" page="1" pageScale="1" pageWidth="850" pageHeight="1100" math="0" shadow="0">
      <root>
        <mxCell id="0" />
        <mxCell id="1" parent="0" />
        <mxCell id="RwuPuHjjr9Q701361i0W-12" value="Roboter" style="rounded=0;whiteSpace=wrap;html=1;shadow=0;fillColor=#dae8fc;strokeColor=#6c8ebf;align=left;verticalAlign=top;" parent="1" vertex="1">
          <mxGeometry x="40" y="60" width="200" height="240" as="geometry" />
        </mxCell>
        <mxCell id="RwuPuHjjr9Q701361i0W-1" value="Arm" style="rounded=0;whiteSpace=wrap;html=1;" parent="1" vertex="1">
          <mxGeometry x="80" y="100" width="120" height="60" as="geometry" />
        </mxCell>
        <mxCell id="RwuPuHjjr9Q701361i0W-2" value="Robotercontroller" style="rounded=0;whiteSpace=wrap;html=1;" parent="1" vertex="1">
          <mxGeometry x="80" y="200" width="120" height="60" as="geometry" />
        </mxCell>
        <mxCell id="RwuPuHjjr9Q701361i0W-14" style="edgeStyle=orthogonalEdgeStyle;rounded=0;orthogonalLoop=1;jettySize=auto;html=1;exitX=1;exitY=0.5;exitDx=0;exitDy=0;entryX=0.5;entryY=0;entryDx=0;entryDy=0;" parent="1" source="RwuPuHjjr9Q701361i0W-3" target="RwuPuHjjr9Q701361i0W-4" edge="1">
          <mxGeometry relative="1" as="geometry" />
        </mxCell>
        <mxCell id="RwuPuHjjr9Q701361i0W-3" value="Kamera" style="rounded=0;whiteSpace=wrap;html=1;" parent="1" vertex="1">
          <mxGeometry x="360" y="70" width="120" height="60" as="geometry" />
        </mxCell>
        <mxCell id="67M_7eNjBaxy3O3uIKFd-3" style="edgeStyle=orthogonalEdgeStyle;rounded=0;orthogonalLoop=1;jettySize=auto;html=1;exitX=0.5;exitY=1;exitDx=0;exitDy=0;entryX=0.5;entryY=0;entryDx=0;entryDy=0;" edge="1" parent="1" source="RwuPuHjjr9Q701361i0W-4" target="67M_7eNjBaxy3O3uIKFd-2">
          <mxGeometry relative="1" as="geometry" />
        </mxCell>
        <mxCell id="67M_7eNjBaxy3O3uIKFd-4" style="edgeStyle=orthogonalEdgeStyle;rounded=0;orthogonalLoop=1;jettySize=auto;html=1;exitX=0.5;exitY=1;exitDx=0;exitDy=0;entryX=0.5;entryY=0;entryDx=0;entryDy=0;" edge="1" parent="1" source="RwuPuHjjr9Q701361i0W-4" target="67M_7eNjBaxy3O3uIKFd-1">
          <mxGeometry relative="1" as="geometry" />
        </mxCell>
        <mxCell id="RwuPuHjjr9Q701361i0W-4" value="Import des aktuellen Image" style="rounded=0;whiteSpace=wrap;html=1;" parent="1" vertex="1">
          <mxGeometry x="540" y="140" width="120" height="60" as="geometry" />
        </mxCell>
        <mxCell id="RwuPuHjjr9Q701361i0W-6" value="Docker" style="rounded=0;whiteSpace=wrap;html=1;align=left;verticalAlign=top;labelBackgroundColor=none;fillColor=#ffe6cc;strokeColor=#d79b00;" parent="1" vertex="1">
          <mxGeometry x="280" y="680" width="200" height="120" as="geometry" />
        </mxCell>
        <mxCell id="RwuPuHjjr9Q701361i0W-9" style="edgeStyle=orthogonalEdgeStyle;rounded=0;orthogonalLoop=1;jettySize=auto;html=1;exitX=0;exitY=0.5;exitDx=0;exitDy=0;entryX=0.5;entryY=1;entryDx=0;entryDy=0;" parent="1" source="RwuPuHjjr9Q701361i0W-8" target="RwuPuHjjr9Q701361i0W-2" edge="1">
          <mxGeometry relative="1" as="geometry" />
        </mxCell>
        <mxCell id="RwuPuHjjr9Q701361i0W-10" value="Ãœbertragung von&amp;nbsp;&lt;div&gt;Joint-Bewegungsbefehlen&lt;/div&gt;" style="edgeLabel;html=1;align=center;verticalAlign=middle;resizable=0;points=[];" parent="RwuPuHjjr9Q701361i0W-9" vertex="1" connectable="0">
          <mxGeometry x="0.6778" y="4" relative="1" as="geometry">
            <mxPoint as="offset" />
          </mxGeometry>
        </mxCell>
        <mxCell id="RwuPuHjjr9Q701361i0W-11" value="Verbingung mittels&lt;div&gt;TCP-IP Connection&lt;/div&gt;" style="edgeLabel;html=1;align=center;verticalAlign=middle;resizable=0;points=[];" parent="RwuPuHjjr9Q701361i0W-9" vertex="1" connectable="0">
          <mxGeometry x="-0.1241" y="-1" relative="1" as="geometry">
            <mxPoint as="offset" />
          </mxGeometry>
        </mxCell>
        <mxCell id="RwuPuHjjr9Q701361i0W-8" value="Koordinaten-umrechnung" style="rounded=0;whiteSpace=wrap;html=1;" parent="1" vertex="1">
          <mxGeometry x="320" y="710" width="120" height="60" as="geometry" />
        </mxCell>
        <mxCell id="RwuPuHjjr9Q701361i0W-21" style="edgeStyle=orthogonalEdgeStyle;rounded=0;orthogonalLoop=1;jettySize=auto;html=1;exitX=0.5;exitY=1;exitDx=0;exitDy=0;entryX=0.5;entryY=0;entryDx=0;entryDy=0;" parent="1" source="RwuPuHjjr9Q701361i0W-18" target="RwuPuHjjr9Q701361i0W-20" edge="1">
          <mxGeometry relative="1" as="geometry" />
        </mxCell>
        <mxCell id="RwuPuHjjr9Q701361i0W-18" value="Bestimmung der Teile" style="rounded=0;whiteSpace=wrap;html=1;" parent="1" vertex="1">
          <mxGeometry x="540" y="400" width="120" height="60" as="geometry" />
        </mxCell>
        <mxCell id="RwuPuHjjr9Q701361i0W-23" style="edgeStyle=orthogonalEdgeStyle;rounded=0;orthogonalLoop=1;jettySize=auto;html=1;exitX=0.5;exitY=1;exitDx=0;exitDy=0;entryX=1;entryY=0.5;entryDx=0;entryDy=0;" parent="1" source="RwuPuHjjr9Q701361i0W-20" target="RwuPuHjjr9Q701361i0W-8" edge="1">
          <mxGeometry relative="1" as="geometry" />
        </mxCell>
        <mxCell id="RwuPuHjjr9Q701361i0W-24" value="Kommunikation mittels&lt;div&gt;API-Schnittstelle&amp;nbsp;&lt;/div&gt;" style="edgeLabel;html=1;align=center;verticalAlign=middle;resizable=0;points=[];" parent="RwuPuHjjr9Q701361i0W-23" vertex="1" connectable="0">
          <mxGeometry x="-0.5203" y="-1" relative="1" as="geometry">
            <mxPoint as="offset" />
          </mxGeometry>
        </mxCell>
        <mxCell id="RwuPuHjjr9Q701361i0W-20" value="Positionsbestimmung mit relativen Koordinaten" style="rounded=0;whiteSpace=wrap;html=1;" parent="1" vertex="1">
          <mxGeometry x="540" y="520" width="120" height="60" as="geometry" />
        </mxCell>
        <mxCell id="67M_7eNjBaxy3O3uIKFd-5" style="edgeStyle=orthogonalEdgeStyle;rounded=0;orthogonalLoop=1;jettySize=auto;html=1;exitX=0.5;exitY=1;exitDx=0;exitDy=0;entryX=0.5;entryY=0;entryDx=0;entryDy=0;" edge="1" parent="1" source="67M_7eNjBaxy3O3uIKFd-1" target="RwuPuHjjr9Q701361i0W-18">
          <mxGeometry relative="1" as="geometry" />
        </mxCell>
        <mxCell id="67M_7eNjBaxy3O3uIKFd-1" value="Erkennung per&lt;div&gt;ArUco-Marker&lt;/div&gt;" style="rounded=0;whiteSpace=wrap;html=1;" vertex="1" parent="1">
          <mxGeometry x="440" y="280" width="120" height="60" as="geometry" />
        </mxCell>
        <mxCell id="67M_7eNjBaxy3O3uIKFd-6" style="edgeStyle=orthogonalEdgeStyle;rounded=0;orthogonalLoop=1;jettySize=auto;html=1;exitX=0.5;exitY=1;exitDx=0;exitDy=0;" edge="1" parent="1" source="67M_7eNjBaxy3O3uIKFd-2">
          <mxGeometry relative="1" as="geometry">
            <mxPoint x="600" y="400" as="targetPoint" />
          </mxGeometry>
        </mxCell>
        <mxCell id="67M_7eNjBaxy3O3uIKFd-2" value="Formerkennung mittels Konturen" style="rounded=0;whiteSpace=wrap;html=1;" vertex="1" parent="1">
          <mxGeometry x="640" y="280" width="120" height="60" as="geometry" />
        </mxCell>
      </root>
    </mxGraphModel>
  </diagram>
</mxfile>
